<?xml version="1.0" encoding="UTF-8" standalone="no"?>
<!-- Created with Inkscape (http://www.inkscape.org/) -->

<svg
   width="200mm"
   height="200mm"
   viewBox="0 0 200 200"
   version="1.1"
   id="svg1"
   xml:space="preserve"
   sodipodi:docname="logo.svg"
   inkscape:version="1.4.2 (f4327f4, 2025-05-13)"
   xmlns:inkscape="http://www.inkscape.org/namespaces/inkscape"
   xmlns:sodipodi="http://sodipodi.sourceforge.net/DTD/sodipodi-0.dtd"
   xmlns="http://www.w3.org/2000/svg"
   xmlns:svg="http://www.w3.org/2000/svg"><sodipodi:namedview
     id="namedview1"
     pagecolor="#505050"
     bordercolor="#eeeeee"
     borderopacity="1"
     inkscape:showpageshadow="0"
     inkscape:pageopacity="0"
     inkscape:pagecheckerboard="0"
     inkscape:deskcolor="#505050"
     inkscape:document-units="mm"
     inkscape:zoom="1.6853109"
     inkscape:cx="330.20614"
     inkscape:cy="346.22692"
     inkscape:window-width="3440"
     inkscape:window-height="1369"
     inkscape:window-x="1912"
     inkscape:window-y="-8"
     inkscape:window-maximized="1"
     inkscape:current-layer="svg1" /><defs
     id="defs1" /><g
     id="layer1"
     transform="matrix(1.1450974,0,0,1.0916331,-5.7254876,0)"><path
       style="fill:#1b501a;fill-opacity:1"
       d="m 63.932041,182.9602 c -1.939108,-0.78252 -1.88353,-3.99081 0.08659,-4.99834 0.386328,-0.19757 3.118028,-0.29555 8.239958,-0.29555 h 7.66204 l 0.299978,-1.65365 c 1.008647,-5.56022 1.356917,-7.95392 1.741916,-11.97239 0.806874,-8.42185 -0.26703,-13.5707 -3.482204,-16.69549 -1.358276,-1.3201 -6.021966,-4.26997 -11.864606,-7.50459 -2.182813,-1.20845 -4.484794,-2.54109 -5.115513,-2.96141 l -1.146763,-0.76423 -2.29282,0.90117 c -8.645803,3.39813 -18.054883,3.19019 -25.576153,-0.56522 -6.918261,-3.45433 -12.008392,-9.46326 -14.185226,-16.74574 -0.504768,-1.68867 -0.5943,-2.6569 -0.633576,-6.85166 l -0.04574,-4.8851 -1.43127,-1.04617 C 11.334089,103.37344 7.4706487,97.596263 5.7219939,91.270549 c -0.6691841,-2.42076 -0.7282341,-3.01546 -0.7215381,-7.26674 0.0065,-4.15435 0.07941,-4.90212 0.7089801,-7.27604 2.6276628,-9.90808 10.9277051,-17.9041 20.2056351,-19.46552 0.993791,-0.16725 1.945508,-0.34288 2.114925,-0.39029 0.214764,-0.0601 0.110497,-0.70824 -0.344361,-2.1406 -2.32905,-7.33422 -0.87362,-15.761651 3.763534,-21.792127 4.353485,-5.661574 10.336407,-8.758539 17.719147,-9.172039 3.242618,-0.181615 7.379937,0.35224 9.77448,1.261242 0.727604,0.276208 1.398181,0.502257 1.490171,0.50233 0.09199,7.4e-5 0.489747,-1.041663 0.883904,-2.31497 1.651006,-5.333499 4.388636,-9.877089 8.336769,-13.8363701 4.471182,-4.4838057 9.50858,-7.2437517 16.012072,-8.77287163 3.389071,-0.79685004 10.288551,-0.81090804 13.890621,-0.0283 6.751287,1.46681793 12.721477,4.83979393 16.706577,9.43870573 3.30563,3.814788 5.30192,7.55974 6.73614,12.636695 0.38539,1.364205 0.80098,2.589621 0.92354,2.723147 0.13313,0.145051 1.15817,-0.04141 2.54652,-0.463236 5.04112,-1.531657 11.05721,-1.494856 15.84077,0.0969 9.23987,3.074611 15.72349,12.443826 15.71836,22.713949 -0.001,2.4174 -0.5854,6.21725 -1.23251,8.0168 -0.52279,1.45385 -0.34315,1.78834 0.96893,1.80413 2.28483,0.0275 6.96408,1.87045 10.0226,3.94745 3.47493,2.35978 7.07906,6.50172 9.06146,10.41361 4.3457,8.57541 3.5984,19.53774 -1.89099,27.739264 -1.35643,2.026602 -5.71559,6.404532 -7.4775,7.509692 l -1.26464,0.79324 0.20631,1.45521 c 0.39123,2.75961 0.17831,8.16152 -0.40826,10.35749 -2.41042,9.02409 -8.92745,15.78908 -18.30314,18.99957 -2.7907,0.9556 -5.47601,1.36303 -8.99584,1.36488 -4.97574,0.003 -8.62679,-0.73807 -13.42219,-2.72298 l -1.91283,-0.79176 -1.52676,0.92071 c -0.83972,0.50639 -4.14613,2.37644 -7.34759,4.15567 -6.852,3.80804 -8.91373,5.11952 -10.23476,6.51037 -2.70963,2.85287 -3.78696,8.09288 -3.14836,15.31334 0.29219,3.30379 1.25959,9.85947 1.88385,12.76615 l 0.29833,1.38906 h 8.85475 c 9.60615,0 9.99342,0.0527 10.62905,1.44781 0.40173,0.88169 0.40173,1.77893 0,2.66062 -0.68998,1.51434 0.6756,1.44927 -30.031697,1.43105 -15.541573,-0.009 -28.512558,-0.11974 -28.824409,-0.24559 z m 20.533734,-42.05358 c 1.06515,-1.99025 -1.197417,-8.1678 -4.71592,-12.87601 -1.932552,-2.586 -5.343142,-5.86704 -7.950741,-7.64873 -1.515499,-1.03549 -2.138156,-1.30875 -2.982183,-1.30875 -1.357794,0 -2.333513,1.00512 -2.333513,2.40382 0,0.84565 0.396041,1.33845 4.313418,5.36724 4.81409,4.95101 7.089673,7.66819 9.586942,11.44736 0.931021,1.40894 1.905016,2.68524 2.164432,2.83623 0.748389,0.43558 1.619879,0.33507 1.917565,-0.22116 z m 14.686725,0.34554 c 0.23827,-0.0914 1.42372,-1.66901 2.63436,-3.50573 2.54222,-3.85695 4.78832,-6.55949 9.15249,-11.01241 1.71144,-1.74625 3.24368,-3.43506 3.40497,-3.75292 0.7804,-1.5379 -0.30084,-3.78771 -1.82034,-3.78771 -1.57319,0 -6.01465,3.66477 -8.63734,7.12689 -3.63904,4.80378 -6.42506,12.24971 -5.49262,14.6796 0.18321,0.47745 0.17704,0.4754 0.75848,0.25228 z m 56.56826,-27.56829 c 1.69635,-1.58858 2.2986,-6.66295 1.26872,-10.68977 -0.84666,-3.310402 -2.16753,-5.599681 -4.64682,-8.053691 -2.70773,-2.68012 -5.77695,-4.29581 -9.86532,-5.19326 l -2.6389,-0.57928 -0.16928,-1.98672 c -0.67517,-7.9239 -5.0024,-14.02366 -12.37298,-17.44123 -3.56787,-1.65434 -5.31763,-2.00888 -9.88047,-2.00198 -4.45238,0.007 -6.33412,0.36987 -9.55725,1.84435 -2.70764,1.23865 -4.79616,2.74048 -6.75836,4.85984 -3.6895,3.985 -4.44301,7.28737 -1.88471,8.26003 0.93669,0.35613 1.97289,-0.29334 2.9854,-1.8712 1.37148,-2.13727 4.29973,-4.63329 7.01283,-5.97768 6.91997,-3.42897 14.71651,-2.24392 20.00129,3.04014 3.25827,3.25782 4.41191,6.26781 4.6639,12.16867 0.19238,4.50502 0.20623,4.52322 3.44679,4.52965 5.58507,0.0111 10.09336,2.12237 12.50741,5.857381 1.50205,2.32396 2.11082,4.95199 2.11082,9.11228 0,3.66261 0.21106,4.3877 1.41737,4.86926 0.76345,0.30477 1.47824,0.0785 2.35956,-0.74679 z M 35.282939,106.24916 c 0.425368,-0.42536 0.772849,-0.99091 0.772179,-1.25677 -6.69e-4,-0.26585 -0.372709,-1.43587 -0.826754,-2.60004 -1.056298,-2.708332 -1.339936,-6.702701 -0.66309,-9.338041 1.525728,-5.9405 6.181772,-10.02484 12.868145,-11.2881 5.542646,-1.04717 5.290586,-0.73493 5.295577,-6.55979 0.0045,-5.20321 0.312086,-6.96823 1.717073,-9.85172 1.775867,-3.64466 4.681681,-6.45969 8.51002,-8.24415 2.630292,-1.22602 4.775806,-1.67326 8.049068,-1.67782 5.325873,-0.007 9.657632,1.73028 13.200654,5.29555 3.259619,3.28008 4.659009,6.19928 5.434909,11.33748 0.41084,2.72068 0.84827,3.64154 1.84917,3.89274 2.11034,0.52967 2.91849,-0.77728 2.87821,-4.65469 -0.0693,-6.67323 -3.46568,-12.93579 -9.273818,-17.1001 -4.683274,-3.35781 -11.892128,-5.01208 -17.817114,-4.08862 -7.749301,1.20778 -14.487455,6.25071 -17.882513,13.38352 -1.503252,3.15824 -2.173103,5.67318 -2.55384,9.58836 l -0.314919,3.23836 -2.012914,0.67036 c -6.619509,2.2045 -11.790375,6.49112 -14.284985,11.84218 -1.196412,2.56636 -1.668758,4.76349 -1.662606,7.73365 0.0098,4.743491 1.295206,8.299401 3.50785,9.704221 1.493467,0.94821 2.241106,0.94202 3.209698,-0.0266 z"
       id="path1" /></g></svg>
